<svg width="140" height="140" xmlns="http://www.w3.org/2000/svg" xmlns:xlink="http://www.w3.org/1999/xlink"><defs><path d="M78.325 21.114c-15.95-3.483-29.225-1.41-36.9 7.814-2.989 3.59-4.677 8.856-7.07 12.856-4.832 8.074-6.698 15.466-3 23.44 4.775 10.293 23.835 12.49 30.752 12.49 15.31 0 31.925-2.723 36.085-16.716 4.16-13.993-3.916-36.4-19.867-39.884z" id="a"/><path d="M43.736 19.72l7.324-.647a1 1 0 011.05.72l3.566 12.473a1 1 0 01-.848 1.268l-11.565 1.322a1 1 0 01-1.106-1.118l.667-5.346.721-2.152v-1.786l-.721-1.295v-2.443a1 1 0 01.912-.997z" id="c"/></defs><path d="M0 1h140v140H0z"/><g transform="translate(19 23)"><path d="M86.503 15.508l-4.73-.432a1 1 0 00-1.055.73l-2.408 8.707a1 1 0 00.847 1.26l7.58.896a1 1 0 001.11-1.113l-.435-3.619-.746-1.6v-1.32l.746-.945v-1.568a1 1 0 00-.91-.996zM79.185 71c6.303 10.318 7.542 18.992 6.809 25.637H52.187c-.73-6.645.504-15.32 6.787-25.637z"/><mask id="b"><use xlink:href="#a"/></mask><use transform="rotate(-5 64.34 48.619)" xlink:href="#a"/><path mask="url(#b)" d="M47 42h2v12h-2zm-4 0h2v9h-2zm8 0h2v17h-2z"/><use xlink:href="#c"/><path d="M36.983 33.049c-6.138.141-9.61-1.484-10.415-4.877-1.209-5.088 6.502-5.527 6.167-1.114-.223 2.942-7.591 5.25-10.69-3.68" stroke="#D5D9E1" stroke-linecap="round" stroke-linejoin="round"/><path d="M64.67 11.581c.398 2.259.835 3.803 1.311 4.633-3.446-.315-5.947-1.055-7.502-2.221-1.556-1.166-2.049-3.96-1.478-8.38 4.714 1.72 7.27 3.71 7.669 5.968zM1.603 16.538C4.685 13.655 7 11.293 8.546 9.451c1.545-1.841 3.24-4.259 5.088-7.25 1.329 2.89 2.68 4.911 4.05 6.062 1.374 1.151 4.376 2.04 9.01 2.666-3.65 2.83-6.214 5.125-7.69 6.884-1.475 1.76-3.528 5.165-6.157 10.217-1.592-4.279-3.1-7.015-4.522-8.208-1.42-1.193-3.662-2.287-6.722-3.284z"/><rect opacity=".5" transform="rotate(-49 10.5 11.5)" x="5" y="11" width="11" height="1" rx=".5"/><rect opacity=".5" transform="rotate(-49 13.5 14.5)" x="8" y="14" width="11" height="1" rx=".5"/><rect opacity=".5" transform="rotate(-49 16.5 16.5)" x="11" y="16" width="11" height="1" rx=".5"/></g></svg>