<svg width="24" height="24" xmlns="http://www.w3.org/2000/svg"><path d="M2.024 6.314v3.458c.841 0 1.522.738 1.522 1.65 0 .91-.681 1.65-1.522 1.65v4.63c0 .68.509 1.23 1.136 1.23h3.27V5.082H3.16c-.627 0-1.136.552-1.136 1.232zm19.841-.768c0-.21-.214-.41-.276-.463H8.033v13.85h13.452c.066-.091.207-.318.207-.609 0-.9-.828-.564-.828-1.534 0-.998 1.001-.564 1.001-1.635 0-.912-1.001-.535-1.001-1.577 0-1.028 1.001-.521 1.001-1.578 0-1.056-1.001-.637-1.001-1.693 0-1.07 1.001-.723 1.001-1.708 0-.984-1.001-.694-1.001-1.476 0-.781 1.001-.839 1.001-1.577zM16.566 8.81l-1.69 2.288h1.309c.123 0 .223.109.223.242v.823c0 .133-.1.241-.223.241H14.58v.682h1.604c.123 0 .223.108.223.24v.824c0 .133-.1.241-.223.241H14.58v1.248c0 .154-.115.278-.257.278h-.875c-.141 0-.256-.124-.256-.278V14.39h-1.788c-.123 0-.222-.108-.222-.241v-.823c0-.133.1-.241.222-.241h1.788v-.682h-1.788c-.123 0-.222-.108-.222-.241v-.823c0-.133.1-.242.222-.242h1.461l-1.69-2.288a.254.254 0 01.038-.337l.594-.505a.21.21 0 01.311.041l1.752 2.371 1.752-2.37a.21.21 0 01.311-.042l.595.505a.254.254 0 01.037.337z" fill="#666"/></svg>