<svg width="140" height="139" xmlns="http://www.w3.org/2000/svg" xmlns:xlink="http://www.w3.org/1999/xlink"><defs><linearGradient x1="6.41%" y1="62.418%" x2="89.467%" y2="36.058%" id="b"><stop stop-color="#E6E8EE" offset="0%"/><stop stop-color="#D3D7E0" offset="100%"/><stop stop-color="#D1D5DF" offset="100%"/></linearGradient><linearGradient x1="50%" y1="1.745%" x2="50%" y2="97.667%" id="d"><stop stop-color="#EBEDF2" offset="0%"/><stop stop-color="#E1E3E8" offset="100%"/></linearGradient><linearGradient x1="0%" y1="55.068%" x2="52.889%" y2="50.186%" id="e"><stop stop-color="#D9DDE4" offset="0%"/><stop stop-color="#D4D7DE" offset="100%"/></linearGradient><linearGradient x1="57.972%" y1="100%" x2="57.972%" y2="21.478%" id="f"><stop stop-color="#F0F2F5" offset="0%"/><stop stop-color="#E1E3E8" offset="100%"/></linearGradient><linearGradient x1="88.795%" y1="87.995%" x2="26.759%" y2="66.701%" id="g"><stop stop-color="#ECEDF1" offset="0%"/><stop stop-color="#E2E5EB" offset="100%"/></linearGradient><linearGradient x1="61.914%" y1="36.141%" x2="50%" y2="63.859%" id="h"><stop stop-color="#D6D9DF" offset="0%"/><stop stop-color="#D6D9E0" offset="100%"/></linearGradient><path id="a" d="M66.775 53.9l42.514-15.309-33.443 33.937-44.004 11.55z"/></defs><g fill="none" fill-rule="evenodd"><path d="M0 0h140v140H0z"/><mask id="c" fill="#fff"><use xlink:href="#a"/></mask><use fill="url(#b)" transform="rotate(30 70.565 61.334)" xlink:href="#a"/><path fill="#CDD0D9" mask="url(#c)" d="M71 53h45v47H71z"/><g transform="translate(32 22)"><path d="M47.318 50c5.365 8.782 6.419 16.164 5.795 21.819H24.34c-.622-5.655.43-13.037 5.776-21.819z" fill="#E5E7EB"/><path d="M69.786 25.582c-.523-4.925-2.745-9.642-6.175-13.612V6.75c0-.548-1.064-1.096-1.064-1.629V3.948c0-.476 1.064-.928 1.064-1.346V0h-5.674L54.84 4.962A33.466 33.466 0 0038.885.849c-.017-.003-.035-.001-.052-.001L38.78.846a33.598 33.598 0 00-15.828 4.019L19.916 0h-5.674v2.602c0 .418 1.064.87 1.064 1.346V5.12c0 .533-1.064 1.081-1.064 1.629v4.98c-3.597 4.064-5.914 8.932-6.415 14.019l-2.736.836v9.314l3.713.323c3.583 12.524 15.662 16.506 29.976 16.506 14.303 0 26.425-3.977 30.032-16.482l3.552-.561V26.37l-2.578-.788z" fill="url(#d)"/><path d="M29.773 40.783c-3.3-.174-6.56-.467-9.78-.878-4.56-.581-9.338-3.994-12.15-3.903-3.23.104-6.76 2.425-5.626 6.83 1.514 5.88 6.964 6.484 12.974 5.724a166.132 166.132 0 0011.827-1.926l2.755-5.847z" fill="url(#e)" transform="rotate(37 15.886 42.41)"/><circle fill="#C9CDD6" cx="39.977" cy="34.955" r="3.5"/><path d="M39.16 27.437a87.998 87.998 0 00-6.282.098c-3.35.186-6.656.837-9.858 1.847-9.66 3.043-6.539-6.143-6.539-6.143s1.197-4.918 5.34-9.465c2.183-2.396 10.222-2.911 17.339-2.862h.044c7.116-.05 15.154.466 17.338 2.862 4.144 4.547 5.34 9.465 5.34 9.465s3.122 9.186-6.538 6.143c-3.203-1.01-6.508-1.66-9.859-1.847a87.998 87.998 0 00-6.281-.098h-.044z" fill="#DBDDE4"/><path d="M51.492 15.9c.13-.05 1.658-.618 2.728-.393.495.103.879.556.87 1.094-.01.767-.77 1.317-1.595 1.065-.705-.251-2.648.223-3.519.503-.191.063-.376-.117-.334-.326.284-1.42 1.841-1.94 1.841-1.94zm-24.62 0c.009.003 1.566.522 1.85 1.943.04.209-.144.389-.334.326-.873-.28-2.814-.754-3.52-.503-.824.252-1.586-.298-1.595-1.065a1.106 1.106 0 01.87-1.094c1.071-.225 2.598.343 2.729.393z" fill="#C9CDD6"/><path d="M23.682 23c2-1.697 4-1.697 6 0M49 23c2-1.697 4-1.697 6 0" stroke="#C9CDD6" stroke-linecap="round" stroke-linejoin="round" stroke-width="2"/><path d="M42.462 57.165a2.792 2.792 0 00-3.738-.16 2.794 2.794 0 00-3.732.168 2.718 2.718 0 00-.175 3.682l-.009.008.184.184 1.773 1.753.059.058a2.708 2.708 0 003.8 0l.058-.058 1.78-1.761a2.718 2.718 0 000-3.874z" fill="#FFF"/></g><path d="M27.197 61.24l43 8.631a1 1 0 01.803.98v44.67a1 1 0 01-1.373.928l-43-17.262A1 1 0 0126 98.26V62.221a1 1 0 011.197-.98z" fill="url(#f)"/><path d="M26.77 61.155L71 70.032 64.865 88.1a1 1 0 01-1.221.64L20.128 76.322a1 1 0 01-.632-1.385l6.172-13.225a1 1 0 011.103-.557z" fill="#ECEDF1"/><path d="M71.803 69.871l43-8.63a1 1 0 011.197.98v36.038a1 1 0 01-.627.928l-43 17.262a1 1 0 01-1.373-.928v-44.67a1 1 0 01.803-.98z" fill="url(#g)"/><path d="M71 70.032l44.3-8.891a1 1 0 011.06.476l5.057 8.676a1 1 0 01-.491 1.431l-42.92 17.23a1 1 0 01-1.327-.632L71 70.032z" fill="#ECEDF1"/><path d="M88.69 66.39c1.916.948.432 2.516 5.387 2.805 4.955.29 7.309-3.57 4.545-5.201-4.475-2.64-9.314.701-10.403 1.725-.253.238-.253.605-.168.67.135.105.458-.064.64 0z" fill="url(#h)"/></g></svg>