<svg width="14" height="14" xmlns="http://www.w3.org/2000/svg"><path d="M12 6.866v3.851c0 .709-.586 1.283-1.31 1.283H2.31C1.585 12 1 11.426 1 10.717v-3.85c0-.71.586-1.284 1.31-1.284h1.147c.35 0 .671.224.755.556a2.35 2.35 0 002.29 1.754 2.348 2.348 0 002.287-1.754c.084-.332.405-.556.756-.556h.96c.91 0 1.495.574 1.495 1.283z"/><path d="M6.137 6.348l-1.929-1.96c-.325-.33-.096-.895.363-.895h.9v-1.97A.52.52 0 015.984 1h1.03a.52.52 0 01.515.524v1.969h.899c.459 0 .688.565.363.896L6.863 6.348a.509.509 0 01-.726 0z"/></svg>