<svg width="16" height="16" xmlns="http://www.w3.org/2000/svg"><path d="M8 0a8 8 0 00-8 8 8 8 0 1016-.002A7.998 7.998 0 008 0zm4.718 12.716a6.66 6.66 0 01-4.035 1.92v-2.599H7.356v2.604a6.628 6.628 0 01-4.074-1.923 6.66 6.66 0 01-1.92-4.035h2.641V7.356H1.36a6.628 6.628 0 011.923-4.074 6.66 6.66 0 014.074-1.923v2.634h1.327V1.362c.66.066 1.301.23 1.914.49a6.684 6.684 0 014.044 5.504h-2.619v1.327h2.616a6.663 6.663 0 01-1.92 4.033z"/><path d="M8 5.647c-1.314 0-2.353 1.015-2.353 2.33A2.355 2.355 0 008 10.352a2.355 2.355 0 002.353-2.377c0-1.314-1.04-2.329-2.353-2.329z"/></svg>