<svg width="140" height="140" xmlns="http://www.w3.org/2000/svg"><path d="M0 0h140v140H0z"/><path d="M76.99 30.024a5.114 5.114 0 016.95 1.994l4.301 7.758a5.114 5.114 0 104.95 8.93l4.137 7.463a5.114 5.114 0 01-1.993 6.951l-45.62 25.288a5.114 5.114 0 01-6.951-1.993l-3.996-7.21a5.196 5.196 0 002.029-7.063 5.196 5.196 0 00-7.066-2.022l-4.355-7.858a5.114 5.114 0 011.993-6.952l45.62-25.287z"/><path d="M92.481 34.48a5.114 5.114 0 016.657 2.825l4.431 10.968a6.648 6.648 0 004.977 12.316l4.384 10.853a5.114 5.114 0 01-2.826 6.657L47.52 103.385a5.114 5.114 0 01-6.657-2.826l-4.304-10.654c3.317-1.34 4.922-5.108 3.587-8.414-1.336-3.307-5.108-4.9-8.426-3.56l-4.65-11.509a5.114 5.114 0 012.827-6.657L92.48 34.479z"/><path d="M107.84 53.59a5.114 5.114 0 015.115 5.115v14.318a7.16 7.16 0 100 14.318v13.295a5.114 5.114 0 01-5.114 5.114H32.159a5.114 5.114 0 01-5.114-5.114V87.341a7.16 7.16 0 000-14.318V58.705a5.114 5.114 0 015.115-5.115h75.682z"/><path d="M90.815 79.666c-.342-3.248-1.795-6.358-4.037-8.976v-3.444c0-.361-.695-.722-.695-1.074v-.773c0-.314.695-.612.695-.887v-1.717h-3.71l-2.023 3.273a21.728 21.728 0 00-10.43-2.713v-.001h-.069v.001a21.793 21.793 0 00-10.347 2.649l-1.985-3.209h-3.71v1.717c0 .275.696.573.696.887v.773c0 .352-.695.713-.695 1.074v3.284c-2.351 2.68-3.866 5.891-4.194 9.246l-1.788.551v6.143l2.427.213c2.342 8.26 10.239 10.885 19.596 10.885 9.35 0 17.274-2.623 19.633-10.87l2.321-.37v-6.142l-1.685-.52z" opacity=".345"/><path d="M71.007 82.31a63.466 63.466 0 00-4.433.069c-2.366.127-4.7.573-6.96 1.265-6.819 2.087-4.615-4.212-4.615-4.212s.844-3.373 3.77-6.49c1.54-1.643 7.215-1.996 12.238-1.963h.03c5.024-.033 10.699.32 12.24 1.963 2.924 3.117 3.77 6.49 3.77 6.49s2.203 6.3-4.616 4.212c-2.26-.692-4.594-1.138-6.959-1.265a63.487 63.487 0 00-4.434-.068h-.03z" opacity=".5"/></svg>