<svg width="140" height="140" xmlns="http://www.w3.org/2000/svg" xmlns:xlink="http://www.w3.org/1999/xlink"><defs><linearGradient x1="50%" y1="42.898%" x2="50%" y2="0%" id="a"><stop stop-color="#EDEFF2" stop-opacity="0" offset="0%"/><stop stop-color="#E1E3E8" offset="100%"/></linearGradient><linearGradient x1="50%" y1="1.745%" x2="50%" y2="97.667%" id="c"><stop stop-color="#EDEFF2" offset="0%"/><stop stop-color="#E1E3E8" offset="100%"/></linearGradient><linearGradient x1="152.311%" y1="8.709%" x2="63.067%" y2="41.002%" id="d"><stop stop-color="#F3F3F6" offset="0%"/><stop stop-color="#E3E4E9" offset="100%"/></linearGradient><path d="M70 32c16.569 0 30 13.431 30 30 0 12.516-7.664 23.241-18.555 27.74L70 102 58.557 89.74C47.665 85.242 40 74.516 40 62c0-16.569 13.431-30 30-30zm0 14c-8.837 0-16 7.163-16 16s7.163 16 16 16 16-7.163 16-16-7.163-16-16-16z" id="b"/></defs><g fill="none" fill-rule="evenodd"><path d="M0 0h140v140H0z"/><path d="M70 97c38.66 0 70 13.208 70 29.5 0 4.865-2.795 9.455-7.744 13.5H7.744C2.794 135.956 0 131.366 0 126.5 0 110.208 31.34 97 70 97z" fill="url(#a)"/><path d="M21.91 86.917l9.26-.841a1 1 0 011.053.728l4.465 16.072a1 1 0 01-.847 1.26l-14.579 1.715a1 1 0 01-1.11-1.113L21 97.74l2.576-2.71v-2.232L21 91.198v-3.285a1 1 0 01.91-.996zm97.18 0l-9.26-.841a1 1 0 00-1.053.728l-4.465 16.072a1 1 0 00.847 1.26l14.579 1.715a1 1 0 001.11-1.113L120 97.74l-2.576-2.71v-2.232l2.576-1.6v-3.285a1 1 0 00-.91-.996z" opacity=".8" fill="#E6E8EC"/><mask id="e" fill="#fff"><use xlink:href="#b"/></mask><use fill="url(#c)" xlink:href="#b"/><path fill="url(#d)" mask="url(#e)" d="M23 47h58v81H23z"/></g></svg>