<svg width="140" height="140" xmlns="http://www.w3.org/2000/svg"><path d="M-119-68h375v605h-375z"/><path d="M0 0h140v140H0z"/><g transform="translate(21 28)"><path d="M60.3 58.75c6.302 10.318 7.54 18.992 6.808 25.637H33.3c-.73-6.645.504-15.32 6.787-25.637z"/><path d="M42.302 59.244c-3.287.344-6.552.565-9.797.663-4.594.14-9.848-2.484-12.61-1.954-3.174.608-6.299 3.452-4.49 7.625 2.416 5.572 7.894 5.315 13.71 3.625a166.132 166.132 0 0011.381-3.753l1.806-6.206z"/><path d="M8.545 56.614c9.388 2.254 14.59 8.304 15.56 13.62.971 5.317 0 15.41 0 13.275" stroke="#D9DBE3" stroke-width="4.273" stroke-linecap="round" stroke-linejoin="round"/><path stroke="#C2C5CE" stroke-width="2.136" d="M5.341 47l1.602 5.341M0 53.409l3.739 1.068"/><path d="M61.312 59.244c3.286.344 6.552.565 9.796.663 4.594.14 9.849-2.484 12.611-1.954 3.174.608 6.298 3.452 4.489 7.625-2.416 5.572-7.893 5.315-13.71 3.625a166.132 166.132 0 01-11.38-3.753l-1.806-6.206z"/><path d="M94 52.34c-9.387 2.255-16.7 9.084-14.492 17.895 2.208 8.81-1.53 13.566-4.735 13.566" stroke="#D9DBE3" stroke-width="4.273" stroke-linecap="round" stroke-linejoin="round"/><path d="M86.699 30.059c-.614-5.788-3.226-11.329-7.257-15.994V7.93c0-.644-1.25-1.287-1.25-1.914V4.639c0-.56 1.25-1.091 1.25-1.581V0h-6.666l-3.637 5.83A39.322 39.322 0 0050.389.997V.995l-.06.001-.063-.001v.002a39.443 39.443 0 00-18.598 4.72L28.101 0h-6.667v3.058c0 .49 1.25 1.021 1.25 1.581v1.377c0 .627-1.25 1.27-1.25 1.914v5.851c-4.226 4.776-6.948 10.496-7.538 16.472l-3.214.984V42.18l4.363.38c4.21 14.716 18.403 19.395 35.221 19.395 16.807 0 31.05-4.674 35.289-19.367l4.172-.66V30.986L86.7 30.06z"/><circle cx="50.205" cy="42.727" r="4.273"/><path d="M50.713 32.238a103.398 103.398 0 00-7.381.116c-3.937.219-7.82.983-11.584 2.17-11.35 3.576-7.683-7.218-7.683-7.218s1.407-5.78 6.275-11.122c2.565-2.814 12.01-3.42 20.373-3.362h.051c8.362-.058 17.807.548 20.373 3.362 4.869 5.343 6.275 11.122 6.275 11.122s3.668 10.794-7.683 7.218c-3.763-1.187-7.647-1.951-11.584-2.17-2.382-.13-4.883-.159-7.38-.116h-.052z"/><path d="M65.193 18.686s1.9-.741 3.215-.465a1.299 1.299 0 011.024 1.285c-.013.902-.906 1.548-1.875 1.251-.83-.295-3.112.263-4.135.592-.225.073-.442-.138-.392-.384.333-1.669 2.163-2.279 2.163-2.279zm-28.908 0s1.83.61 2.163 2.28c.048.245-.17.456-.392.383-1.025-.33-3.306-.887-4.136-.592-.969.297-1.864-.35-1.874-1.25a1.299 1.299 0 011.021-1.286c1.317-.276 3.218.465 3.218.465z"/><g transform="translate(33.114 24.568)"><circle cx="3.205" cy="3.205" r="3.205"/><circle cx="30.977" cy="3.205" r="3.205"/></g><path d="M54.593 67.17a3.28 3.28 0 00-4.392-.19 3.283 3.283 0 00-4.385.198 3.194 3.194 0 00-.206 4.327l-.01.009.216.217 2.083 2.059.069.068a3.182 3.182 0 004.464 0l.07-.068 2.09-2.07a3.194 3.194 0 000-4.55z"/></g></svg>