<svg width="24" height="24" xmlns="http://www.w3.org/2000/svg"><path d="M10.224 21.76c-.315.316-.462.397-.639.451a.909.909 0 01-.534 0c-.177-.054-.324-.135-.64-.45L1.74 15.088c-.315-.315-.396-.462-.45-.639a.909.909 0 010-.534c.054-.177.135-.324.45-.64l9.7-9.7h8.486v8.486l-9.7 9.7zM7.59 10.255a4.016 4.016 0 00.314 5.342 4.016 4.016 0 005.342.314l-2.14-2.14-.63.628L11.78 15.7a3.123 3.123 0 01-3.55-4.807l-.64-.64zm.628-.629l1.903 1.903.628-.629-1.063-1.063a3.122 3.122 0 013.246.732 3.128 3.128 0 01.304 4.075l.639.639a4.017 4.017 0 00-.314-5.343 4.016 4.016 0 00-5.343-.314zm8.171-3.928a1 1 0 101.414 1.414 1 1 0 00-1.414-1.414z"/></svg>