<svg width="14" height="14" xmlns="http://www.w3.org/2000/svg"><path d="M13.614 13.98h-3.221a.388.388 0 01-.388-.389v-.605H4.003v.605a.388.388 0 01-.389.388H.41a.388.388 0 01-.388-.388V5.384c0-.215.174-.389.388-.389h.605V1.163c0-.643.522-1.165 1.165-1.165h9.665c.643 0 1.165.522 1.165 1.165v3.832h.605c.214 0 .388.174.388.389v8.207a.388.388 0 01-.388.388zm-1.6-12.598a.388.388 0 00-.389-.389H2.382a.388.388 0 00-.388.389v3.613h.652c.214 0 .357.174.357.389v2.609h8.002v-2.61c0-.214.174-.388.388-.388h.62V1.382zm.993 4.609H12V8.6a.388.388 0 01-.388.388H2.396a.388.388 0 01-.389-.389V5.99H1.001V13h2.006v-.605c0-.215.174-.389.389-.389h7.2c.215 0 .389.174.389.389V13h2.022V5.99z" fill="#999" fill-rule="nonzero"/></svg>