<svg width="20" height="20" xmlns="http://www.w3.org/2000/svg"><g transform="translate(2 3)" fill="none" fill-rule="evenodd"><rect stroke="#979797" fill="#D8D8D8" x="6.722" y="13.735" width="2.556" height="1" rx=".5"/><path stroke="#666" stroke-linecap="square" stroke-linejoin="round" d="M14.222 12.353v1.765H9.778"/><path d="M2 6.176h1.556v6.06a1 1 0 01-1 1h-.778A1.778 1.778 0 010 11.457V8.176a2 2 0 012-2zm10.444 0H14a2 2 0 012 2v3.282c0 .981-.796 1.777-1.778 1.777h-.778a1 1 0 01-1-1V6.176z" fill="#666"/><path d="M2.667 6.176V2a2 2 0 012-2h6.666a2 2 0 012 2v4.176h0" stroke="#666" stroke-width="2"/><path d="M7.105 13.235h2.673V15H7.105a.882.882 0 010-1.765z" fill="#666"/></g></svg>