<svg width="24" height="24" xmlns="http://www.w3.org/2000/svg"><path d="M21 19.131c0 .26-.045.504-.136.73A1.805 1.805 0 0119.159 21H3.967a1.991 1.991 0 01-1.81-1.14A1.712 1.712 0 012 19.131V8.885c0-.52.185-.961.554-1.324.37-.363.82-.544 1.35-.544h15.192c.53 0 .98.181 1.35.544.37.363.554.804.554 1.324v2.793h-4.75c-.53 0-.98.178-1.35.534a1.75 1.75 0 00-.554 1.314c.014.356.09.67.23.944.112.233.296.445.555.637.258.191.63.287 1.12.287H21v3.737zM18.154 6.072h-9.5c.753-.383 1.465-.753 2.135-1.109.585-.3 1.164-.602 1.736-.903a134.4 134.4 0 011.34-.698c.488-.26.924-.38 1.307-.36.384.02.708.086.973.195.307.15.572.35.796.596l1.213 2.279zm-2.846 7.454c0-.26.091-.48.272-.657a.92.92 0 01.67-.267.92.92 0 01.67.267.885.885 0 01.272.657.92.92 0 01-.272.667.902.902 0 01-.67.277.902.902 0 01-.67-.277.919.919 0 01-.272-.667z" fill="#666"/></svg>