<svg width="140" height="140" xmlns="http://www.w3.org/2000/svg"><defs><linearGradient x1="100%" y1="31.605%" x2="24.03%" y2="50%" id="a"><stop stop-color="#DBDEE6" offset="0%"/><stop stop-color="#D1D5DF" offset="100%"/></linearGradient><linearGradient x1="79.758%" y1="31.683%" x2="50%" y2="68.317%" id="b"><stop stop-color="#EEF0F5" offset="0%"/><stop stop-color="#EAECF2" offset="100%"/></linearGradient><linearGradient x1="100%" y1="31.569%" x2="24.03%" y2="50%" id="c"><stop stop-color="#E5E7EB" offset="0%"/><stop stop-color="#E0E2E7" offset="100%"/></linearGradient></defs><g fill="none" fill-rule="evenodd"><path d="M0 0h140v140H0z"/><path d="M64.432 13.295a5.114 5.114 0 015.113 5.114v8.871a5.114 5.114 0 100 10.21v8.533a5.114 5.114 0 01-5.113 5.113h-52.16a5.114 5.114 0 01-5.113-5.113V37.78a5.196 5.196 0 005.199-5.194 5.196 5.196 0 00-5.199-5.194v-8.984a5.114 5.114 0 015.114-5.114h52.159z" fill="url(#a)" transform="rotate(-29 103.053 -2.618)"/><path d="M78.75 18.41a5.114 5.114 0 015.114 5.113v11.829a6.648 6.648 0 000 13.284v11.705a5.114 5.114 0 01-5.114 5.114h-67.5a5.114 5.114 0 01-5.114-5.114V48.85c3.578 0 6.478-2.892 6.478-6.458 0-3.566-2.9-6.457-6.478-6.457V23.523a5.114 5.114 0 015.114-5.114h67.5z" fill="url(#b)" transform="rotate(-22 126.952 -8.875)"/><path d="M82.84 26.59a5.114 5.114 0 015.115 5.115v14.318a7.16 7.16 0 100 14.318v13.295a5.114 5.114 0 01-5.114 5.114H7.159a5.114 5.114 0 01-5.114-5.114V60.341a7.16 7.16 0 000-14.318V31.705A5.114 5.114 0 017.16 26.59h75.682z" fill="url(#c)" transform="translate(25 27)"/><path d="M90.815 79.666c-.342-3.248-1.795-6.358-4.037-8.976v-3.444c0-.361-.695-.722-.695-1.074v-.773c0-.314.695-.612.695-.887v-1.717h-3.71l-2.023 3.273a21.728 21.728 0 00-10.43-2.713v-.001h-.069v.001a21.793 21.793 0 00-10.347 2.649l-1.985-3.209h-3.71v1.717c0 .275.696.573.696.887v.773c0 .352-.695.713-.695 1.074v3.284c-2.351 2.68-3.866 5.891-4.194 9.246l-1.788.551v6.143l2.427.213c2.342 8.26 10.239 10.885 19.596 10.885 9.35 0 17.274-2.623 19.633-10.87l2.321-.37v-6.142l-1.685-.52z" fill="#FFF" opacity=".345"/><path d="M71.007 82.31a63.466 63.466 0 00-4.433.069c-2.366.127-4.7.573-6.96 1.265-6.819 2.087-4.615-4.212-4.615-4.212s.844-3.373 3.77-6.49c1.54-1.643 7.215-1.996 12.238-1.963h.03c5.024-.033 10.699.32 12.24 1.963 2.924 3.117 3.77 6.49 3.77 6.49s2.203 6.3-4.616 4.212c-2.26-.692-4.594-1.138-6.959-1.265a63.487 63.487 0 00-4.434-.068h-.03z" fill="#C3C7D0" opacity=".5"/></g></svg>