<svg width="141" height="140" xmlns="http://www.w3.org/2000/svg" xmlns:xlink="http://www.w3.org/1999/xlink"><defs><linearGradient x1="100%" y1="27.156%" x2="33.482%" y2="27.156%" id="a"><stop stop-color="#E4E7ED" offset="0%"/><stop stop-color="#E1E3E8" offset="100%"/></linearGradient><linearGradient x1="73.185%" y1="0%" x2="43.785%" y2="119.736%" id="d"><stop stop-color="#E9EBF2" offset="0%"/><stop stop-color="#E7EAF0" offset="71.374%"/><stop stop-color="#FFF" stop-opacity="0" offset="100%"/></linearGradient><linearGradient x1="-34.388%" y1="50%" x2="100%" y2="68.407%" id="e"><stop stop-color="#F1F2F4" offset="0%"/><stop stop-color="#DBDEE6" offset="100%"/></linearGradient><filter x="-.7%" y="-1.3%" width="101.5%" height="102.5%" filterUnits="objectBoundingBox" id="c"><feOffset dx="1" in="SourceAlpha" result="shadowOffsetInner1"/><feComposite in="shadowOffsetInner1" in2="SourceAlpha" operator="arithmetic" k2="-1" k3="1" result="shadowInnerInner1"/><feColorMatrix values="0 0 0 0 0.275497463 0 0 0 0 0.278120411 0 0 0 0 0.317028986 0 0 0 0.141963505 0" in="shadowInnerInner1"/></filter><path d="M64.424 43.173c18.39 8.212 35.883 9.044 39.073 1.857 3.19-7.186-9.132-19.67-27.521-27.883-18.39-8.212-35.883-9.044-39.073-1.857-3.19 7.186 9.132 19.67 27.521 27.883z" id="b"/></defs><g fill="none" fill-rule="evenodd"><path d="M0 0h140v140H0z"/><g transform="translate(9 21)"><path d="M84.975 4.75a1.401 1.401 0 01.692 1.906l-1.204 2.428a1.54 1.54 0 01-1.998.726 1.401 1.401 0 01-.692-1.906l1.204-2.428a1.54 1.54 0 011.998-.726z" fill="#DADDE6"/><circle fill="#DADDE6" cx="85.28" cy="3.12" r="3.12"/><circle fill="url(#a)" cx="74.36" cy="24.44" r="19.24"/><use fill="#DADDE3" xlink:href="#b"/><use fill="#000" filter="url(#c)" xlink:href="#b"/><path d="M66.264 40.259c9.34 4.129 18.208 4.584 19.807 1.017 1.6-3.567-4.675-9.805-14.015-13.935-9.34-4.129-18.208-4.584-19.807-1.017-1.6 3.567 4.675 9.805 14.015 13.935z" fill="#FFF"/><path d="M51.692 25.919c4.845-3.138 11.858-2.581 21.039 1.67 9.18 4.253 13.709 8.746 13.587 13.48L83 114H.84l50.852-88.081z" fill="url(#d)" opacity=".585"/><path d="M45.92 19.617c1.385-.417 2.204-1.622 1.829-2.692-.375-1.07-1.803-1.6-3.188-1.182-1.386.417-2.205 1.622-1.83 2.692s1.803 1.6 3.188 1.182zm18.25.922c1.361.626 2.835.087 3.293-1.205.458-1.292-.273-2.847-1.634-3.473-1.36-.626-2.834-.087-3.292 1.205-.458 1.292.273 2.847 1.634 3.473zm20.43 9.205c1.273.69 2.843.503 3.506-.416.663-.92.168-2.223-1.105-2.912-1.274-.69-2.844-.503-3.507.416-.663.92-.168 2.223 1.105 2.912zm9.768 12.826c1.019 1.176 2.665 1.463 3.677.64 1.012-.822 1.006-2.443-.013-3.62-1.019-1.176-2.665-1.463-3.677-.64-1.012.822-1.006 2.443.013 3.62z" fill="#FFF"/></g><path d="M64.39 95.562c-.942-.36-1.728 4.008-3.9 6.08-.707.673-.115 2.424.532 2.672.647.247 2.249-.011 2.97-1.359 2.104-3.927 1.25-7.067.399-7.393z" fill="#C3C7CF"/><path d="M13.354 27.6C5.84 27.6 0 26.632 0 19.684c0-2.463.503-2.754.503-4.29 0-7.547 3.612-13.211 12.901-13.211h-.135.135l.206.004c7.893.175 13.064 6.454 13.064 13.208 0 9.295-5.185 12.132-13.095 12.203z" fill="url(#e)" transform="scale(-1 1) rotate(58 -86.872 -10.634)"/><path d="M54.991 79.378c-.307-.987.234-2.665 1.137-4.526 2.409.2 4.91 1.169 7.385 2.715.568.354.984.51 1.443.678-.044.08-.093.159-.136.237-.869 1.59-1.499 3.3-1.926 5.071-1.288 5.343-4.846 1.134-4.846 1.134s-2.04-2.037-3.057-5.31z" fill="#CFD2DD"/><path d="M58.567 74.855c.098.037.125.16.049.224-.343.29-1.046.976-1.126 1.335-.11.41-.537.584-.859.389a.543.543 0 01-.228-.647c.194-.528.878-1.039.878-1.039s.622-.513 1.286-.262m1.592 4.711c.67.418 1.383.136 1.787-.51.329-.526.07-1.42-.409-1.763a1.29 1.29 0 01-.09-.07c-.583-.49-1.376-.215-1.77.416-.404.645-.188 1.509.482 1.927" fill="#AFB5C5"/><path d="M55.562 87.054l-1.69 2.704a.493.493 0 00.166.676l2.675 1.672a.493.493 0 00.68-.148l1.69-2.704a.492.492 0 00-.165-.676l-2.676-1.672a.492.492 0 00-.68.148z" fill="#D1D3E0"/><path d="M42.875 80.896l-.762 1.219a1.11 1.11 0 00.269 1.47l2.502 1.906a1.11 1.11 0 001.613-.294l1.408-2.254a1.11 1.11 0 00-.645-1.657l-3.149-.872a1.11 1.11 0 00-1.236.482z" fill="#CBCEDA"/><path d="M69.158 101.95l-.689.002c-.917 0-1.66.744-1.662 1.662l-.002 2.029a1.664 1.664 0 001.666 1.665h.689a1.665 1.665 0 001.662-1.663l.002-2.028a1.664 1.664 0 00-1.666-1.666z" fill="#CBCDD5"/><path d="M67.166 93.072c4.053-.213 6.55 3.754 7.013 6.426.463 2.672.07 3.987-.06 6.59-.1 2.005-2.648 2.19-3.553 1.508-1.01-.76-.448-3.21-1.018-3.112-4.207.721-6.42-1.255-6.639-5.93l4.257-5.482z" fill="#DADDE6"/><path d="M69.604 95.044c-.013-.19.531-1.315.612-1.467 1.047.399 2.226 1.301 2.652 2.036-.148.102-1.034.434-1.232.435h-.03l-.922.004a1.092 1.092 0 01-1.08-1.008z" fill="#FFF"/><path d="M67.303 95.401c.534.857 3.789-2.167 6.767-2.517.968-.114 1.55-1.871 1.182-2.46-.366-.587-1.798-1.344-3.183-.7-4.04 1.877-5.248 4.904-4.766 5.677z" fill="#CCCED6"/></g></svg>