<svg width="140" height="140" xmlns="http://www.w3.org/2000/svg" xmlns:xlink="http://www.w3.org/1999/xlink"><defs><linearGradient x1="50%" y1="1.745%" x2="50%" y2="115.81%" id="b"><stop stop-color="#EDEEF2" offset="0%"/><stop stop-color="#E3E4E9" offset="100%"/></linearGradient><linearGradient x1="50%" y1="0%" x2="50%" y2="97.305%" id="d"><stop stop-color="#EFF0F4" offset="0%"/><stop stop-color="#E5E6EC" offset="100%"/></linearGradient><rect id="a" x="0" y=".966" width="90.759" height="48.276" rx=".966"/></defs><g fill="none" fill-rule="evenodd"><path d="M0 0h140v140H0z"/><g transform="rotate(4 -722.753 387.94)"><mask id="c" fill="#fff"><use xlink:href="#a"/></mask><use fill="url(#b)" xlink:href="#a"/><path fill="#E3E4E9" opacity=".892" mask="url(#c)" d="M99.568 13.703l-6.826 47.185-89.726.125z"/><path fill="#FFF" opacity=".429" d="M65.784 34.224h19.31v4.828h-19.31zm9.219 7.436h9.655v4.828h-9.655z"/><path fill="#DBDDE6" d="M0 19.31h90.759v2.897H0z"/><path d="M12.748 13.125c.859-.524 2.43-.252 4.713.818 2.283 1.07 4.705 2.667 7.266 4.793l-1.73 1.575c-4.004-2.306-6.389-3.669-7.154-4.09-1.147-.63-2.375-1.52-2.742-2.051-.244-.354-.362-.702-.353-1.045z" fill="#C3C6D1"/><path d="M15.419 9.565c.864 0 4.423 2.711 10.676 8.135l-2.681 3.598c-5.54-4.573-8.596-7.084-9.17-7.535-.574-.45-1.076-.65-1.507-.6.923-2.399 1.817-3.598 2.682-3.598z" fill="#DBDDE6"/><path d="M40.237 13.078c-.859-.524-2.43-.252-4.713.818-2.283 1.07-4.705 2.667-7.266 4.793l1.73 1.574c4.004-2.305 6.389-3.668 7.154-4.088 1.147-.63 2.375-1.522 2.742-2.052.244-.354.362-.702.353-1.045z" fill="#C3C6D1"/><path d="M37.566 9.518c-.864 0-4.423 2.711-10.676 8.135l2.682 3.598c5.539-4.573 8.595-7.085 9.17-7.535.573-.45 1.075-.65 1.506-.6-.923-2.399-1.817-3.598-2.682-3.598zM13.728 29.264a191.896 191.896 0 014.766-4.66 65.557 65.557 0 015.54-4.675l1.342-.151c.454 1.2-.317 3.289-2.314 6.264s-4.697 6.06-8.1 9.253l-1.234-6.031z" fill="#DBDDE6"/><path d="M38.834 29.264a191.896 191.896 0 00-4.766-4.66 65.557 65.557 0 00-5.54-4.675l-1.342-.151c-.455 1.2.317 3.289 2.314 6.264s4.697 6.06 8.1 9.253l1.234-6.031z" fill="#DBDDE6"/><path fill="#DBDDE6" d="M27.578.785l.217 48.27-3.145.22-.07-48.28z"/></g><g transform="translate(14 28)"><rect fill="url(#d)" transform="rotate(12 30.91 20.276)" x="28.013" y="10.621" width="5.793" height="19.31" rx=".966"/><rect fill="url(#d)" transform="rotate(12 84.013 21.633)" x="81.117" y="11.977" width="5.793" height="19.31" rx=".966"/><path d="M0 18.907c37.333 6.73 74.667 6.154 112-1.727" stroke="#DBDDE6" stroke-width=".966"/><g transform="translate(54.069)"><path d="M13.595 20.403c2.945-1.25 4.455-3.866 2.372-8.774C13.883 6.72 7.4 2.055 4.455 3.305c-2.945 1.25-1.237 7.942.846 12.85 2.084 4.91 5.348 5.498 8.294 4.248z" fill="#E3E4EA"/><path d="M18.293 15.285c1.482-.868 2.138-1.505 1.72-2.357-.418-.851-1.598-.152-2.318.593-.72.744-2.385 2.453-2.385 2.453s1.5.178 2.983-.69zm-.203 2.038c1.493-.255 2.207-.59 2.017-1.484-.19-.893-1.38-.683-2.172-.275-.793.409-2.625 1.34-2.625 1.34s1.287.674 2.78.419z" fill="#E5E6EB"/><path fill="#CCD3DF" d="M1.2 9.961L2.84 7.17 4.417 9.6z"/><path d="M8.771 8.121c1.238-1.086 6.558.988 9.56 1.203 3.003.215-.038 4.496-3.575 4.164-3.536-.331-7.223-4.28-5.985-5.367z" fill="#DBDCE5"/><circle fill="#FBFBFB" cx="5.793" cy="6.759" r="1"/><path d="M9.172 20.077c-.395.776-.395 1.808 0 3.095m1.756-3.095c-.373 1.159-.373 2.19 0 3.095" stroke="#DBDDE6" stroke-width=".966" stroke-linecap="round" stroke-linejoin="round"/></g><rect fill="#DBDDE6" x="26.082" y="10.621" width="5.793" height="19.31" rx=".966"/><rect fill="#DBDDE6" x="79.186" y="11.977" width="5.793" height="19.31" rx=".966"/><rect fill="#D2D3DB" x="26.082" y="26.069" width="5.793" height="1" rx=".5"/><rect fill="#D2D3DB" x="79.186" y="27.426" width="5.793" height="1" rx=".5"/></g></g></svg>